<svg height="53" viewBox="0 0 53 53" width="53" xmlns="http://www.w3.org/2000/svg"><g fill="none"><path d="m45.206 32.32-9.17-9.15 1.5-1.5a1.27 1.27 0 0 0 0-1.79l-4.38-4.37a1.26 1.26 0 0 0 -1.78 0l-1.5 1.49-9.17-9.19-1.41 1.42 6.52 6.52a17.75 17.75 0 0 0 -17.08 3.75l-1.52-1.53a1.31 1.31 0 0 0 -1.79 0l-4.41 4.42a1.26 1.26 0 0 0 0 1.78l4.38 4.38c.235.237.556.37.89.37.334-.001.654-.134.89-.37l4.41-4.38a1.22 1.22 0 0 0 .37-.89 1.26 1.26 0 0 0 -.37-.89l-1.43-1.48a15.7 15.7 0 0 1 17.86-2.06l-1.05 1a1.26 1.26 0 0 0 -.37.9 1.24 1.24 0 0 0 .37.89l4.38 4.38c.233.24.555.373.89.37.334-.001.654-.134.89-.37l1.05-1.05a15.7 15.7 0 0 1 -2.06 17.9l-1.47-1.46a1.29 1.29 0 0 0 -1.79 0l-4.41 4.42a1.26 1.26 0 0 0 0 1.78l4.38 4.38c.236.236.556.369.89.37.335.003.657-.13.89-.37l4.42-4.41a1.27 1.27 0 0 0 0-1.79l-1.51-1.5a17.75 17.75 0 0 0 3.76-17.12l6.52 6.52zm-38.92-5.71-3.33-3.33 3.36-3.37 3.33 3.33zm26-2.49-3.33-3.33.83-.84 1.55-1.55 1-1 3.31 3.36zm-2.56 25.93-3.33-3.33 3.37-3.37 3.33 3.33z" fill="#abb9c6"/><path d="m16.856 10.85a5.36 5.36 0 1 1 3.79-1.57 5.4 5.4 0 0 1 -3.79 1.57zm.06-8.68a3.31 3.31 0 1 0 2.35 1 3.36 3.36 0 0 0 -2.35-1zm30.56 39.3a5.37 5.37 0 1 1 3.8-1.58 5.33 5.33 0 0 1 -3.8 1.58zm.06-8.68a3.31 3.31 0 1 0 2.35 1 3.36 3.36 0 0 0 -2.35-1z" fill="#0f4c82"/></g></svg>