<svg height="133" viewBox="0 0 133 133" width="133" xmlns="http://www.w3.org/2000/svg"><g fill="none" fill-rule="evenodd"><g fill-rule="nonzero"><path d="m62.41 92.86h-21.83a6.5 6.5 0 1 0 0 3h21.83zm-28.15 4.89a3.48 3.48 0 1 1 0-6.96 3.48 3.48 0 0 1 0 6.96zm64.48-9.96a6.49 6.49 0 0 0 -6.32 5.07h-22.28v3h22.33a6.48 6.48 0 1 0 6.27-8.07zm0 10a3.48 3.48 0 1 1 3.49-3.48 3.48 3.48 0 0 1 -3.49 3.44z" fill="#e4e9ef"/><path d="m118.5 133h-104c-8.006-.006-14.494-6.494-14.5-14.5v-104c.006-8.006 6.494-14.494 14.5-14.5h104c8.006.006 14.494 6.494 14.5 14.5v104c-.006 8.006-6.494 14.494-14.5 14.5zm-104-130c-6.349.006-11.494 5.151-11.5 11.5v104c.006 6.349 5.151 11.494 11.5 11.5h104c6.349-.006 11.494-5.151 11.5-11.5v-104c-.006-6.349-5.151-11.494-11.5-11.5z" fill="#e4e9ef"/><path d="m88.26 66h-5.75a2.49 2.49 0 0 0 -2.51 2.49v5.75a2.48 2.48 0 0 0 2.49 2.49h1.31a17.6 17.6 0 0 1 -12.16 15.27v-.39a2.61 2.61 0 0 0 -2.64-2.61h-5.5a2.62 2.62 0 0 0 -2.62 2.62v.38a17.6 17.6 0 0 1 -12.12-15.27h1.81a2 2 0 0 0 2-2v-6.73a2 2 0 0 0 -2-2h-6.73a2 2 0 0 0 -2 2v6.72a2 2 0 0 0 2 2h1.92a20.63 20.63 0 0 0 15.15 18.4v2a2.63 2.63 0 0 0 2.62 2.62h5.47a2.62 2.62 0 0 0 2.61-2.62v-2a20.6 20.6 0 0 0 15.19-18.39h1.46a2.49 2.49 0 0 0 2.49-2.49v-5.75a2.5 2.5 0 0 0 -2.49-2.49zm-43.42 3h4.73v4.73h-4.73zm23.8 27.72h-4.73v-4.72h4.73zm19.11-23h-4.75v-4.72h4.73z" fill="#c3cad9"/></g><path d="m84.8 55.9c0-.07-3.82-7.36-4.22-22.21a2 2 0 1 0 -4 .11c.33 11.94 2.71 19.29 4 22.35-3.29 2.46-11 9.28-12 19.57h-4.15c-.92-10.29-8.67-17.11-12-19.57 1.24-3.06 3.62-10.41 4-22.35a2 2 0 0 0 -4-.06c-.4 14.85-4.18 22.14-4.22 22.2a2 2 0 0 0 .7 2.65c.12.07 11.61 7.4 11.61 19.18a2 2 0 0 0 2 2h8a2 2 0 0 0 2-2c0-11.78 11.49-19.11 11.6-19.18a2 2 0 0 0 .68-2.69z" fill="#0f4c82"/><path d="m66.54 54.08a6.43 6.43 0 1 1 .06-12.86 6.43 6.43 0 0 1 -.06 12.86zm0-8.85a2.43 2.43 0 1 0 .06 4.86 2.43 2.43 0 0 0 -.06-4.86z" fill="#0f4c82" fill-rule="nonzero"/></g></svg>