<svg height="133" viewBox="0 0 133 133" width="133" xmlns="http://www.w3.org/2000/svg"><g fill="none" fill-rule="evenodd"><path d="m118.5 133h-104c-8.006-.006-14.494-6.494-14.5-14.5v-104c.006-8.006 6.494-14.494 14.5-14.5h104c8.006.006 14.494 6.494 14.5 14.5v104c-.006 8.006-6.494 14.494-14.5 14.5zm-104-130c-6.349.006-11.494 5.151-11.5 11.5v104c.006 6.349 5.151 11.494 11.5 11.5h104c6.349-.006 11.494-5.151 11.5-11.5v-104c-.006-6.349-5.151-11.494-11.5-11.5z" fill="#e4e9ef" fill-rule="nonzero"/><path d="m88.14 38.35a1.5 1.5 0 0 0 1.5-1.5v-4.34a5.92 5.92 0 0 0 -5.91-5.91h-34.46a5.92 5.92 0 0 0 -5.91 5.91v68a5.92 5.92 0 0 0 5.91 5.91h34.46a5.92 5.92 0 0 0 5.91-5.91v-20.82a1.5 1.5 0 0 0 -3 0v20.8a2.91 2.91 0 0 1 -2.91 2.91h-34.46a2.91 2.91 0 0 1 -2.91-2.91v-68a2.91 2.91 0 0 1 2.91-2.91h6.51c.473.335.753.88.75 1.46v1a1.56 1.56 0 0 0 1.55 1.57h17a1.56 1.56 0 0 0 1.53-1.61v-1a1.78 1.78 0 0 1 .74-1.46h6.38a2.91 2.91 0 0 1 2.91 2.91v4.34a1.5 1.5 0 0 0 1.5 1.56z" fill="#c3cad9"/><g fill="#e4e9ef"><rect height="8.42" rx="1.68" width="8.42" x="49.94" y="66.37"/><rect height="8.42" rx="1.68" width="8.42" x="49.94" y="78.61"/><rect height="8.42" rx="1.68" width="8.42" x="62.17" y="78.61"/><rect height="8.42" rx="1.68" width="8.42" x="74.32" y="78.61"/><rect height="8.42" rx="1.68" width="8.42" x="49.78" y="41.88"/><rect height="8.42" rx="1.68" width="8.42" x="49.78" y="54.12"/></g><path d="m88.34 75.52h-18.47a8.13 8.13 0 0 1 -8.12-8.12v-18.48a8.13 8.13 0 0 1 8.12-8.12h18.47a8.13 8.13 0 0 1 8.12 8.12v18.48a8.13 8.13 0 0 1 -8.12 8.12zm-18.47-30.72a4.13 4.13 0 0 0 -4.12 4.12v18.48a4.13 4.13 0 0 0 4.12 4.12h18.47a4.12 4.12 0 0 0 4.12-4.12v-18.48a4.12 4.12 0 0 0 -4.12-4.12z" fill="#0f4c82" fill-rule="nonzero"/><path d="m66.38 99.91a4.18 4.18 0 1 1 0-8.36 4.18 4.18 0 0 1 0 8.36zm0-5.35a1.18 1.18 0 1 0 1.18 1.17 1.17 1.17 0 0 0 -1.18-1.17z" fill="#c3cad9" fill-rule="nonzero"/></g></svg>