<svg height="133" viewBox="0 0 133 133" width="133" xmlns="http://www.w3.org/2000/svg"><g fill="none" fill-rule="evenodd"><path d="m118.5 133h-104c-8.006-.006-14.494-6.494-14.5-14.5v-104c.006-8.006 6.494-14.494 14.5-14.5h104c8.006.006 14.494 6.494 14.5 14.5v104c-.006 8.006-6.494 14.494-14.5 14.5zm-104-130c-6.349.006-11.494 5.151-11.5 11.5v104c.006 6.349 5.151 11.494 11.5 11.5h104c6.349-.006 11.494-5.151 11.5-11.5v-104c-.006-6.349-5.151-11.494-11.5-11.5z" fill="#e4e9ef" fill-rule="nonzero"/><path d="m66.42 93.74a1.5 1.5 0 0 1 -1.5-1.5v-18.07a1.5 1.5 0 0 1 3 0v18.07a1.5 1.5 0 0 1 -1.5 1.5z" fill="#e4e9ef"/><path d="m66.42 101.31a1.47 1.47 0 0 1 -.36 0l-27.2-6.8a1.51 1.51 0 0 1 -1.13-1.51v-21.73a1.5 1.5 0 0 1 3 0v20.57l25.69 6.43 25.85-6.43v-19.73a1.5 1.5 0 0 1 3 0v20.89a1.49 1.49 0 0 1 -1.14 1.45l-27.35 6.8a1.42 1.42 0 0 1 -.36.06z" fill="#c3cad9"/><g fill-rule="nonzero"><path d="m105.25 43.68a1.53 1.53 0 0 0 -1.06-1l-26.77-6.56a1.51 1.51 0 0 0 -1.5.49l-9.28 11-8.79-10.94a1.49 1.49 0 0 0 -1.52-.52l-27.58 6.61a1.49 1.49 0 0 0 -.75 2.43l10.52 12.38a1.5 1.5 0 0 0 1.14.53c.12.01.24.01.36 0l26.59-6.54 27 6.45c.116.014.234.014.35 0a1.5 1.5 0 0 0 1.17-.56l9.87-12.35c.319-.4.413-.935.25-1.42zm-65 11.24-8.42-9.82 24.27-5.81 7.9 9.79zm53.14-.09-24-5.75 8.29-9.82 23.58 5.8z" fill="#c3cad9"/><path d="m105.29 67.11-9.87-11.88a2 2 0 0 0 -2-.67l-26.83 6.35-26.47-6.26a2 2 0 0 0 -2 .64l-10.41 12a2 2 0 0 0 1.05 3.26l27.31 6.45c.153.02.307.02.46 0a2 2 0 0 0 1.53-.71l8.57-10.27 8.87 10.24a2 2 0 0 0 1.5.74 2 2 0 0 0 .48-.06l26.74-6.56a2 2 0 0 0 1.43-1.38 2 2 0 0 0 -.36-1.89zm-49.51 5.69-22.86-5.4 7.46-8.58 22.62 5.35zm21.94-.09-7.44-8.56 22.85-5.41 7 8.47z" fill="#0f4c82"/></g></g></svg>