<svg height="56" viewBox="0 0 37 56" width="37" xmlns="http://www.w3.org/2000/svg"><g fill="none" fill-rule="evenodd" transform="translate(0 .279)"><path d="m32.12 12.53v-8.46a4.08 4.08 0 0 0 -4.12-4.07h-24a4.08 4.08 0 0 0 -4 4.07v47.3a4.07 4.07 0 0 0 4.07 4.07h23.93a4.08 4.08 0 0 0 4.08-4.07v-17.82l-2 .19v17.63a2.08 2.08 0 0 1 -2.08 2.07h-24a2.07 2.07 0 0 1 -2-2.07v-47.3a2.07 2.07 0 0 1 2.07-2.07h4.6c.282.231.447.575.45.94v.67a1.09 1.09 0 0 0 1.08 1.1h11.8a1.09 1.09 0 0 0 1.08-1.1v-.67a1.23 1.23 0 0 1 .46-.94h4.46a2.08 2.08 0 0 1 2.08 2.07v8.65z" fill="#abb9c6"/><rect fill="#fff" height="21.19" rx="4.22" width="21.19" x="14.14" y="12.44"/><g fill-rule="nonzero"><path d="m31.12 34.64h-12.75a5.24 5.24 0 0 1 -5.23-5.23v-12.74a5.24 5.24 0 0 1 5.23-5.23h12.75a5.23 5.23 0 0 1 5.22 5.23v12.74a5.23 5.23 0 0 1 -5.22 5.23zm-12.75-21.2a3.23 3.23 0 0 0 -3.23 3.23v12.74a3.23 3.23 0 0 0 3.23 3.23h12.75a3.23 3.23 0 0 0 3.22-3.23v-12.74a3.23 3.23 0 0 0 -3.22-3.23z" fill="#0f4c82"/><path d="m16 50.73a3.11 3.11 0 1 1 3.1-3.1 3.1 3.1 0 0 1 -3.1 3.1zm0-4.21a1.11 1.11 0 1 0 -.21 2.21 1.11 1.11 0 0 0 .21-2.21z" fill="#abb9c6"/></g></g></svg>