<svg height="42" viewBox="0 0 72 42" width="72" xmlns="http://www.w3.org/2000/svg"><g fill="none" fill-rule="evenodd"><path d="m30.746 27.439-7.86-7.86a1 1 0 0 1 0-1.41l7.88-7.89 1.41 1.41-7.17 7.19 7.15 7.15zm8.54-.01-1.41-1.41 7.17-7.17-7.15-7.16 1.41-1.41 7.86 7.86a1 1 0 0 1 .3.71 1 1 0 0 1 -.3.7z" fill="#0f4c82"/><path d="m64.716 35.439v-30.66a4.5 4.5 0 0 0 -4.49-4.5h-48.58a4.51 4.51 0 0 0 -4.5 4.5v30.66h-6.5v1.9a4 4 0 0 0 4 4h62.54a4 4 0 0 0 4-4v-1.9zm-55.62-30.66a2.5 2.5 0 0 1 2.55-2.5h48.58a2.5 2.5 0 0 1 2.49 2.5v30.66h-53.62zm58.09 34.57h-62.54a2 2 0 0 1 -2-1.91h66.52a2 2 0 0 1 -1.98 1.91z" fill="#abb9c6" fill-rule="nonzero"/></g></svg>